# xmcd
#
# Track frame offsets:
#	300
#	13090
#	27132
#	38055
#	52198
#	65731
#	79984
#	95165
#	110239
#	120799
#	134319
#	147915
#	161769
#	175013
#	186956
#	199318
#	212489
#	227431
#	240971
#	258777
#	269999
#	284786
#	298544
#	311880
#	326326
#
# Disc length: 4518 seconds
#
# Revision: 1
# Processed by: cddbd v1.5.2PL0 Copyright (c) Steve Scherf et al.
# Submitted via: audiograbber 1.83.01
#
DISCID=7f11a219
DTITLE=Various Artist - A Bad Case Of The Blues - CD3
DYEAR=1900
DGENRE=
TTITLE0=Slim Harpo - I Got Love If You Want It
TTITLE1=Little Walter and His Jukes - Blues With A Feeling
TTITLE2=John Lee Hooker - No Shoes
TTITLE3=Otis Rush - My Love Will Never Die (Pt 1)
TTITLE4=Buddy Guy - This Is The End
TTITLE5=Muddy Waters - Rollin' Stone
TTITLE6=Willie Dixon - This Pain In My Heart
TTITLE7=Elmore James - Whose Muddy Shoes
TTITLE8=Sonny Terry - Hootin' Blues No.2
TTITLE9=Walter Horton - Black Gal
TTITLE10=Howlin' Wolf - Everybody's In The Mood
TTITLE11=Buddy Guy - Sit And Cry (The Blues)
TTITLE12=Magic Sam - All Your Love
TTITLE13=Robert Lockwood - Aw, Aw Baby
TTITLE14=Jimmy Rogers - Chicago Bound
TTITLE15=Lightnin' Hopkins - I'm Wild About You Baby
TTITLE16=Sonny Boy Williamson - The Key (To Your Door)
TTITLE17=Little Walter - Last Night
TTITLE18=Snooks Eaglin - Death Valley Blues
TTITLE19=Junior Wells - Prison Bars All Around Me
TTITLE20=Muddy Waters - Just To Be With You
TTITLE21=Sonny Boy Williamson - No Nights By Myself
TTITLE22=B B King - I Need You So Bad
TTITLE23=John Lee Hooker - Bad Boy
TTITLE24=Jimmy Reed - You Got Me Dizzy
EXTD=
EXTT0=
EXTT1=
EXTT2=
EXTT3=
EXTT4=
EXTT5=
EXTT6=
EXTT7=
EXTT8=
EXTT9=
EXTT10=
EXTT11=
EXTT12=
EXTT13=
EXTT14=
EXTT15=
EXTT16=
EXTT17=
EXTT18=
EXTT19=
EXTT20=
EXTT21=
EXTT22=
EXTT23=
EXTT24=
PLAYORDER=
